Coordinates
version=1
nRows=27
nColumns=12
inDegrees=yes

Units are S.I. units (second, meters, Newtons, ...)
Angles are in degrees

endheader
time	SC_y	SC_z	SC_x	AC_y	AC_z	AC_x	GH_y	GH_z	GH_yy	EL_x	PS_y
       0.0              -31.23          13.38          79.81          53.26         -19.51          0.306           82.9          17.04          125.2          10.96          6.524
   0.02794              -31.23          13.38           79.8          53.25         -19.51         0.3082          82.88          17.04          125.2          10.98          6.546
   0.05588              -31.23          13.38          79.79          53.25         -19.51         0.3105          82.85          17.05          125.2          10.99          6.568
   0.08382              -31.24          13.39          79.78          53.25          -19.5          0.313          82.82          17.05          125.2          11.01          6.592
    0.1118              -31.24          13.39          79.78          53.24          -19.5         0.3156          82.79          17.06          125.2          11.02          6.617
    0.1397              -31.24          13.39          79.77          53.24          -19.5         0.3184          82.76          17.06          125.2          11.04          6.644
    0.1676              -31.24          13.39          79.76          53.23         -19.49         0.3214          82.72          17.07          125.2          11.06          6.673
    0.1956              -31.25          13.39          79.75          53.23         -19.49         0.3246          82.69          17.07          125.2          11.08          6.704
    0.2235              -31.25          13.39          79.74          53.22         -19.48          0.328          82.65          17.08          125.2           11.1          6.737
    0.2514              -31.25           13.4          79.73          53.22         -19.48         0.3317          82.61          17.09          125.2          11.12          6.772
    0.2794              -31.25           13.4          79.71          53.21         -19.47         0.3356          82.56          17.09          125.2          11.14           6.81
    0.3073              -31.26           13.4           79.7          53.21         -19.47         0.3398          82.51           17.1          125.2          11.17          6.851
    0.3353              -31.26           13.4          79.69           53.2         -19.46         0.3444          82.46          17.11          125.2          11.19          6.896
    0.3632              -31.26           13.4          79.67          53.19         -19.46         0.3493          82.41          17.12          125.3          11.22          6.943
    0.3911              -31.27          13.41          79.65          53.19         -19.45         0.3547          82.34          17.13          125.3          11.26          6.995
    0.4191              -31.27          13.41          79.64          53.18         -19.44         0.3605          82.28          17.14          125.3          11.29          7.051
     0.447              -31.28          13.41          79.62          53.17         -19.43         0.3668          82.21          17.15          125.3          11.33          7.112
     0.475              -31.28          13.42           79.6          53.16         -19.42         0.3736          82.13          17.17          125.3          11.37          7.178
    0.5029              -31.29          13.42          79.57          53.15         -19.41         0.3811          82.04          17.18          125.3          11.41          7.251
    0.5308              -31.29          13.43          79.55          53.14          -19.4         0.3893          81.95          17.19          125.3          11.46           7.33
    0.5588               -31.3          13.43          79.52          53.12         -19.39         0.3983          81.85          17.21          125.3          11.52          7.417
    0.5867              -31.31          13.43          79.49          53.11         -19.38         0.4082          81.73          17.23          125.3          11.58          7.513
    0.6146              -31.32          13.44          79.45          53.09         -19.36         0.4191          81.61          17.25          125.3          11.64          7.619
    0.6426              -31.33          13.45          79.42          53.07         -19.35         0.4313          81.47          17.27          125.3          11.71          7.736
    0.6705              -31.34          13.45          79.37          53.06         -19.33         0.4447          81.32           17.3          125.3          11.79          7.866
    0.6985              -31.35          13.46          79.33          53.03         -19.31         0.4598          81.14          17.33          125.3          11.88          8.012
    0.7264              -31.36          13.47          79.28          53.01         -19.29         0.4766          80.95          17.36          125.3          11.99          8.175
